<svg width="20" height="20" viewBox="0 0 20 20" fill="none" xmlns="http://www.w3.org/2000/svg">
<path fill-rule="evenodd" clip-rule="evenodd" d="M4.36087 4.13263C3.26613 4.13263 2.37866 5.0201 2.37866 6.11485V15.6295C2.37866 16.7242 3.26613 17.6117 4.36087 17.6117H13.8755C14.9702 17.6117 15.8577 16.7242 15.8577 15.6295V13.3984C15.8577 12.7416 16.3902 12.2091 17.047 12.2091C17.7039 12.2091 18.2364 12.7416 18.2364 13.3984V15.6295C18.2364 18.0379 16.2839 19.9904 13.8755 19.9904H4.36087C1.95243 19.9904 0 18.0379 0 15.6295V6.11485C0 3.70641 1.95243 1.75398 4.36087 1.75398H6.59194C7.24878 1.75398 7.78127 2.28646 7.78127 2.9433C7.78127 3.60015 7.24878 4.13263 6.59194 4.13263H4.36087Z" fill="white"/>
<path d="M10.6174 0L18.8102 0.00112101C19.0951 0.00108803 19.3704 0.103269 19.5863 0.289084C19.8021 0.474899 19.9442 0.732009 19.9865 1.01366L19.9988 1.18971L19.9999 9.38255C20.0027 9.68458 19.8905 9.97634 19.686 10.1986C19.4815 10.4209 19.2001 10.5571 18.8989 10.5795C18.5977 10.6019 18.2992 10.5089 18.0641 10.3193C17.829 10.1297 17.6748 9.85771 17.6329 9.55859L17.6205 9.38255L17.6217 4.06026L8.99878 12.6831C8.79555 12.8864 8.5256 13.0091 8.23887 13.0287C7.95213 13.0483 7.66801 12.9634 7.43904 12.7897L7.31681 12.6831C7.1136 12.4799 6.99085 12.21 6.97127 11.9232C6.95168 11.6365 7.03659 11.3524 7.21029 11.1234L7.31681 11.0012L15.9397 2.3783L10.6174 2.37942C10.3322 2.37968 10.0564 2.27746 9.84033 2.0914C9.62421 1.90533 9.48215 1.64781 9.44002 1.36576L9.42769 1.18971C9.42743 0.904531 9.52965 0.628752 9.71571 0.412636C9.90178 0.19652 10.1593 0.0544548 10.4414 0.0123339L10.6174 0Z" fill="white"/>
</svg>
