<svg width="120" height="120" viewBox="0 0 120 120" fill="none" xmlns="http://www.w3.org/2000/svg">
<path d="M71.415 17.5049L32.55 57.375C31.8674 58.0753 31.4854 59.0145 31.4854 59.9925C31.4854 60.9704 31.8674 61.9096 32.55 62.6099L71.415 102.495C71.733 102.822 72.1131 103.081 72.5331 103.258C72.953 103.436 73.4042 103.527 73.86 103.527C74.3158 103.527 74.767 103.436 75.1869 103.258C75.6068 103.081 75.987 102.822 76.305 102.495C76.9591 101.825 77.3254 100.926 77.3254 99.9899C77.3254 99.0537 76.9591 98.1547 76.305 97.4849L39.7575 59.9925L76.305 22.5074C76.9569 21.8381 77.3217 20.9406 77.3217 20.0062C77.3217 19.0718 76.9569 18.1743 76.305 17.5049C75.987 17.1784 75.6068 16.9188 75.1869 16.7416C74.767 16.5643 74.3158 16.473 73.86 16.473C73.4042 16.473 72.953 16.5643 72.5331 16.7416C72.1131 16.9188 71.733 17.1784 71.415 17.5049Z" fill="black"/>
</svg>
