<svg width="25" height="25" viewBox="0 0 25 25" fill="none" xmlns="http://www.w3.org/2000/svg">
<path fill-rule="evenodd" clip-rule="evenodd" d="M25 12.5C25 19.4036 19.4036 25 12.5 25C5.59644 25 0 19.4036 0 12.5C0 5.59644 5.59644 0 12.5 0C19.4036 0 25 5.59644 25 12.5ZM12.5112 6.25033C11.04 6.25033 10.0946 7.03078 9.42961 8.36085C9.06942 9.08123 8.19344 9.37323 7.47305 9.01303C6.75267 8.65284 6.46067 7.77686 6.82086 7.05647C7.8225 5.0532 9.6223 3.33366 12.5112 3.33366C15.2559 3.33366 17.9169 5.25759 17.9169 8.12533C17.9169 9.58297 17.1969 10.687 16.2895 11.5139C15.6274 12.1174 14.8079 12.6277 13.9695 13.0827V14.792C13.9695 15.5974 13.3166 16.2503 12.5112 16.2503C11.7058 16.2503 11.0529 15.5974 11.0529 14.792V12.1994C11.0529 11.6498 11.3618 11.1469 11.8521 10.8985C12.9435 10.3456 13.7718 9.86231 14.325 9.35817C14.843 8.88605 15.0002 8.50863 15.0002 8.12533C15.0002 7.31116 14.1267 6.25033 12.5112 6.25033ZM12.5003 21.8753C13.5359 21.8753 14.3753 21.0359 14.3753 20.0003C14.3753 18.9648 13.5359 18.1253 12.5003 18.1253C11.4648 18.1253 10.6253 18.9648 10.6253 20.0003C10.6253 21.0359 11.4648 21.8753 12.5003 21.8753Z" fill="white"/>
</svg>
