<svg width="20" height="20" viewBox="0 0 20 20" fill="none" xmlns="http://www.w3.org/2000/svg">
<path d="M14.2857 20H5.71429C2.57143 20 0 17.4286 0 14.2857V5.71429C0 2.57143 2.57143 0 5.71429 0H14.2857C17.4286 0 20 2.57143 20 5.71429V14.2857C20 17.4286 17.4286 20 14.2857 20ZM8.63393 10.7679C8.36161 10.6786 8.11607 10.6295 7.90179 10.6295C7.58036 10.6295 7.29911 10.7143 7.05804 10.8795C6.81696 11.0446 6.62946 11.2812 6.48661 11.5848H6.4375L6.25 10.7679H5V16.9688H6.61161V12.9643C6.67857 12.7232 6.80804 12.5268 7 12.375C7.19196 12.2232 7.4375 12.1473 7.72321 12.1473C7.92857 12.1473 8.16072 12.192 8.41964 12.2857L8.63393 10.7679ZM13.7768 15.3839C13.6339 15.4911 13.433 15.5982 13.1652 15.7009C12.8973 15.8036 12.5938 15.8571 12.2545 15.8571C11.7098 15.8571 11.3125 15.7232 11.0714 15.4598C10.8259 15.1964 10.692 14.8036 10.6696 14.2813H14.3884C14.4286 14.067 14.4598 13.8616 14.4821 13.6607C14.5045 13.4643 14.5134 13.2768 14.5134 13.1027C14.5134 12.625 14.442 12.2232 14.3036 11.9018C14.1607 11.5804 13.9777 11.3214 13.7455 11.1339C13.5134 10.942 13.25 10.808 12.9509 10.7232C12.6518 10.6429 12.3482 10.5982 12.0312 10.5982C11.0893 10.5982 10.3571 10.8705 9.83482 11.4152C9.3125 11.9598 9.05357 12.7768 9.05357 13.8705C9.05357 14.8884 9.28571 15.6875 9.75 16.2679C10.2143 16.8527 10.9464 17.1429 11.9464 17.1429C12.4241 17.1429 12.8795 17.0759 13.3036 16.9375C13.7277 16.7991 14.067 16.6339 14.3125 16.4375L13.7768 15.3839ZM12.8036 12.2455C12.9732 12.4866 13.0402 12.8304 13.0089 13.2768H10.7009C10.7411 12.8571 10.8661 12.5179 11.067 12.2679C11.2679 12.0179 11.5804 11.8884 12.0045 11.8884C12.3705 11.8839 12.6339 12.0045 12.8036 12.2455ZM16.3705 12.3571C16.5536 12.5312 16.7902 12.6161 17.0893 12.6161C17.4018 12.6161 17.6518 12.5312 17.8348 12.3571C18.0179 12.183 18.1071 11.9509 18.1071 11.6607C18.1071 11.3705 18.0179 11.1429 17.8348 10.9732C17.6518 10.8036 17.4062 10.7188 17.0893 10.7188C16.7902 10.7188 16.5536 10.8036 16.3705 10.9732C16.1875 11.1429 16.0982 11.3705 16.0982 11.6607C16.0982 11.9509 16.1875 12.183 16.3705 12.3571ZM16.3705 16.8438C16.5536 17.0179 16.7902 17.1027 17.0893 17.1027C17.4018 17.1027 17.6518 17.0179 17.8348 16.8438C18.0179 16.6696 18.1071 16.4375 18.1071 16.1473C18.1071 15.8571 18.0179 15.6295 17.8348 15.4598C17.6518 15.2902 17.4062 15.2054 17.0893 15.2054C16.7902 15.2054 16.5536 15.2902 16.3705 15.4598C16.1875 15.6295 16.0982 15.8571 16.0982 16.1473C16.0982 16.442 16.1875 16.6696 16.3705 16.8438Z" fill="#696969"/>
</svg>
