<svg width="9" height="16" viewBox="0 0 9 16" fill="none" xmlns="http://www.w3.org/2000/svg">
<path d="M0.657615 0.915855C0.548587 1.02748 0.487549 1.17732 0.487549 1.33335C0.487549 1.48939 0.548587 1.63923 0.657615 1.75085L6.74886 7.9996L0.657615 14.2471C0.548587 14.3587 0.487549 14.5086 0.487549 14.6646C0.487549 14.8206 0.548587 14.9705 0.657615 15.0821C0.71061 15.1365 0.773972 15.1798 0.843961 15.2093C0.91395 15.2389 0.989148 15.2541 1.06511 15.2541C1.14108 15.2541 1.21628 15.2389 1.28627 15.2093C1.35626 15.1798 1.41962 15.1365 1.47262 15.0821L7.95011 8.43585C8.06388 8.31914 8.12755 8.16259 8.12755 7.9996C8.12755 7.83661 8.06388 7.68007 7.95011 7.56335L1.47262 0.917105C1.41962 0.862676 1.35626 0.819414 1.28627 0.789875C1.21628 0.760336 1.14108 0.745117 1.06511 0.745117C0.989148 0.745117 0.91395 0.760336 0.843961 0.789875C0.773972 0.819414 0.71061 0.862676 0.657615 0.917105V0.915855Z" fill="white"/>
</svg>
