<svg fill="none" height="64" viewBox="0 0 64 64" width="64" xmlns="http://www.w3.org/2000/svg"><path d="m64 32c0 6.329-1.8768 12.5159-5.393 17.7782-3.5162 5.2624-8.5139 9.3639-14.3611 11.7859-5.8473 2.422-12.2814 3.0558-18.4888 1.821-6.2074-1.2347-11.9092-4.2824-16.38452-8.7577-4.47528-4.4753-7.52298-10.1771-8.757709-16.3845-1.234727-6.2074-.6010202-12.6415 1.820989-18.4888 2.422-5.8472 6.52352-10.84492 11.78594-14.36113 5.2623-3.5162 11.4492-5.39297008 17.7782-5.39297v12.8c-3.7974 0-7.5095 1.1261-10.6669 3.2358-3.1575 2.1097-5.6184 5.1083-7.0716 8.6167-1.4532 3.5083-1.8334 7.3688-1.0926 11.0932.7409 3.7245 2.5695 7.1456 5.2546 9.8308 2.6852 2.6851 6.1063 4.5137 9.8308 5.2546 3.7244.7408 7.5849.3606 11.0932-1.0926 3.5084-1.4532 6.507-3.9141 8.6167-7.0715 2.1097-3.1575 3.2358-6.8696 3.2358-10.667z" fill="#f4b183"/></svg>