<svg width="138" height="43" viewBox="0 0 138 43" fill="none" xmlns="http://www.w3.org/2000/svg">
<path d="M14.9268 12.5762L11.6309 29.1143C11.4453 30.0322 11.3525 30.6328 11.3525 30.916C11.3525 31.1895 11.416 31.4824 11.543 31.7949C10.5371 32.293 9.63379 32.542 8.83301 32.542C8.3252 32.542 8.07129 32.3369 8.07129 31.9268C8.07129 31.7217 8.16895 31.1162 8.36426 30.1104L11.8506 12.5762H9.81445C7.5 12.5762 5.50293 12.7959 3.82324 13.2354C4.14551 11.9365 4.58008 11.126 5.12695 10.8037C5.67383 10.4814 6.87012 10.3203 8.71582 10.3203H18.6328C21.2988 10.3203 23.0615 9.3584 23.9209 7.43457C24.2627 8.01074 24.4336 8.47461 24.4336 8.82617C24.4336 10.0957 23.6475 11.1162 22.0752 11.8877C21.1279 12.3467 19.3311 12.5762 16.6846 12.5762H14.9268ZM41.1768 20.0176C38.9697 23.8848 36.7383 26.9121 34.4824 29.0996C32.2266 31.2773 30.2002 32.3662 28.4033 32.3662C27.3096 32.3662 26.4258 32.0098 25.752 31.2969C25.0879 30.584 24.7559 29.6465 24.7559 28.4844C24.7559 28.0449 24.8535 27.3467 25.0488 26.3896L25.3711 24.7783C25.8496 22.4541 26.0889 20.8232 26.0889 19.8857C26.0889 19.3291 25.9229 18.875 25.5908 18.5234C26.8604 18.2305 27.6562 18.084 27.9785 18.084C28.7012 18.084 29.0625 18.5918 29.0625 19.6074C29.0625 20.3594 28.9209 21.4385 28.6377 22.8447L28.0664 25.7012C27.7832 27.0781 27.6416 27.9717 27.6416 28.3818C27.6416 29.5928 28.1543 30.1982 29.1797 30.1982C30.4004 30.1982 32.0264 29.1729 34.0576 27.1221C36.0889 25.0615 38.0566 22.4541 39.9609 19.2998L41.1768 20.0176ZM28.1396 12.6348L28.3447 12.6494C28.999 12.6201 29.9365 12.293 31.1572 11.668C32.3877 11.0332 33.3496 10.3887 34.043 9.73438C33.6133 11.082 32.8516 12.21 31.7578 13.1182C30.0977 14.5049 28.9746 15.1982 28.3887 15.1982C27.998 15.1982 27.8027 14.959 27.8027 14.4805C27.8027 13.7969 27.915 13.1816 28.1396 12.6348ZM49.0869 23.1963C48.1396 25.1494 46.7676 26.8633 44.9707 28.3379C43.1738 29.8125 41.5625 30.5498 40.1367 30.5498C39.0723 30.5498 38.2031 30.1885 37.5293 29.4658C36.8555 28.7432 36.5186 27.8057 36.5186 26.6533C36.5186 23.958 37.5439 21.4678 39.5947 19.1826C41.6455 16.8877 43.8818 15.7402 46.3037 15.7402C47.5537 15.7402 48.9014 16.0967 50.3467 16.8096C50.542 15.8721 50.8252 15.2813 51.1963 15.0371C51.5674 14.793 52.5098 14.5928 54.0234 14.4365C53.2617 15.9697 52.5342 19.6221 51.8408 25.3936L51.6504 26.8877C55.8398 24.3682 59.0723 21.7949 61.3477 19.168L62.5781 19.9443C60.4297 22.7471 56.7529 25.8037 51.5479 29.1143C51.5186 29.4951 51.499 29.7783 51.4893 29.9639C51.3428 32.415 51.084 34.2217 50.7129 35.3838C50.3418 36.5459 49.6729 37.6494 48.7061 38.6943C46.8115 40.7354 44.5068 41.7559 41.792 41.7559C40.3369 41.7559 39.1553 41.4092 38.2471 40.7158C37.3389 40.0322 36.8848 39.1436 36.8848 38.0498C36.8848 36.9854 37.2754 36.0527 38.0566 35.252C38.8477 34.4512 40.3271 33.4746 42.4951 32.3223C43.9307 31.5703 45.957 30.4473 48.5742 28.9531L49.0869 23.1963ZM49.834 19.3877C48.5645 18.04 47.168 17.3662 45.6445 17.3662C44.1992 17.3662 42.8369 18.2744 41.5576 20.0908C40.2783 21.8975 39.6387 23.8213 39.6387 25.8623C39.6387 27.3076 40.1709 28.0303 41.2354 28.0303C42.2705 28.0303 43.6426 27.1709 45.3516 25.4521C47.0703 23.7236 48.5645 21.7021 49.834 19.3877ZM48.4277 30.9014C47.8613 31.2432 46.7139 31.8975 44.9854 32.8643C41.6064 34.7686 39.917 36.4482 39.917 37.9033C39.917 38.5479 40.1904 39.0801 40.7373 39.5C41.2842 39.9199 41.9824 40.1299 42.832 40.1299C46.5625 40.1299 48.4277 37.0537 48.4277 30.9014ZM61.9922 25.5693C64.9023 19.0166 67.8711 15.7402 70.8984 15.7402C72.1094 15.7402 72.9834 16.248 73.5205 17.2637C74.0576 18.2695 74.3262 19.9053 74.3262 22.1709L74.3408 23.9287C74.3408 26.9756 74.79 28.5234 75.6885 28.5723C76.4111 28.6016 77.5488 27.7324 79.1016 25.9648C80.6641 24.1973 82.251 21.9756 83.8623 19.2998L85.0781 19.9736C83.4961 23.1084 81.709 25.7598 79.7168 27.9277C77.7344 30.0957 76.0986 31.1797 74.8096 31.1797C73.6084 31.1797 72.7441 30.6182 72.2168 29.4951C71.6895 28.3721 71.4258 26.5361 71.4258 23.9873V22.6836C71.4258 19.7344 70.918 18.2598 69.9023 18.2598C68.4668 18.2598 66.6357 20.2373 64.4092 24.1924C62.1631 28.1768 61.04 30.54 61.04 31.2822C61.04 31.5264 61.1328 31.7656 61.3184 32C60.8789 32.2441 60.3076 32.3662 59.6045 32.3662C58.7354 32.3662 58.3008 31.9805 58.3008 31.209C58.3008 30.6719 58.6084 29.0459 59.2236 26.3311C59.2432 26.2432 59.3701 25.6133 59.6045 24.4414L62.6074 9.32422C61.9531 9.56836 61.2939 9.69043 60.6299 9.69043C58.7354 9.69043 57.7881 8.57227 57.7881 6.33594C58.7256 7.03906 59.8145 7.39062 61.0547 7.39062C62.8027 7.39062 64.4824 7.03906 66.0938 6.33594L63.6914 18.4502C63.6621 18.5869 63.2129 20.4033 62.3438 23.8994C62.2754 24.1924 62.1582 24.749 61.9922 25.5693ZM92.124 26.1992C92.3877 26.6777 92.5195 27.0977 92.5195 27.459C92.5195 28.416 91.709 29.4756 90.0879 30.6377C88.4766 31.79 87.0068 32.3662 85.6787 32.3662C84.5068 32.3662 83.5498 31.8438 82.8076 30.7988C82.0752 29.7539 81.709 28.4062 81.709 26.7559C81.709 24.9199 82.1924 22.3076 83.1592 18.9189L83.833 16.458H81.3574C80.3223 16.458 79.4971 16.6045 78.8818 16.8975C79.4482 15.8623 79.917 15.2129 80.2881 14.9492C80.6592 14.6855 81.2891 14.5537 82.1777 14.5537H84.3896L84.6826 13.543C85.1318 12.0391 85.6689 11.0088 86.2939 10.4521C86.9189 9.88574 87.8564 9.60254 89.1064 9.60254C89.2529 9.60254 89.4873 9.6123 89.8096 9.63184C89.0479 10.6084 88.2568 12.249 87.4365 14.5537H95.1709C96.5283 14.5537 97.5635 14.3779 98.2764 14.0264C98.0322 15.0322 97.7051 15.6914 97.2949 16.0039C96.8945 16.3066 96.1426 16.458 95.0391 16.458H86.8066C86.709 16.7803 86.6357 17.0195 86.5869 17.1758C85.4053 21.1992 84.8145 24.2363 84.8145 26.2871C84.8145 28.5527 85.6299 29.6855 87.2607 29.6855C88.1006 29.6855 89.0137 29.3291 90 28.6162C90.9961 27.9033 91.7041 27.0977 92.124 26.1992ZM97.1631 25.9062C97.1631 28.7676 98.374 30.1982 100.796 30.1982C102.896 30.1982 105.21 29.1973 107.739 27.1953C110.269 25.1934 112.549 22.5566 114.58 19.2852L115.825 19.9736C113.911 23.5479 111.421 26.5068 108.354 28.8506C105.298 31.1943 102.397 32.3662 99.6533 32.3662C97.8955 32.3662 96.5039 31.7998 95.4785 30.667C94.4629 29.5342 93.9551 27.9863 93.9551 26.0234C93.9551 23.1914 94.8779 20.7695 96.7236 18.7578C98.5791 16.7461 100.811 15.7402 103.418 15.7402C104.678 15.7402 105.684 16.0576 106.436 16.6924C107.197 17.3271 107.578 18.1768 107.578 19.2412C107.578 20.9893 106.523 22.5371 104.414 23.8848C102.314 25.2324 99.8975 25.9062 97.1631 25.9062ZM97.2803 24.5C99.3213 24.3926 101.069 23.8066 102.524 22.7422C103.989 21.6777 104.722 20.4473 104.722 19.0508C104.722 17.8008 104.165 17.1758 103.052 17.1758C101.724 17.1758 100.498 17.8887 99.375 19.3145C98.252 20.7402 97.5537 22.4688 97.2803 24.5ZM114.712 25.9062C114.712 28.7676 115.923 30.1982 118.345 30.1982C120.444 30.1982 122.759 29.1973 125.288 27.1953C127.817 25.1934 130.098 22.5566 132.129 19.2852L133.374 19.9736C131.46 23.5479 128.97 26.5068 125.903 28.8506C122.847 31.1943 119.946 32.3662 117.202 32.3662C115.444 32.3662 114.053 31.7998 113.027 30.667C112.012 29.5342 111.504 27.9863 111.504 26.0234C111.504 23.1914 112.427 20.7695 114.272 18.7578C116.128 16.7461 118.359 15.7402 120.967 15.7402C122.227 15.7402 123.232 16.0576 123.984 16.6924C124.746 17.3271 125.127 18.1768 125.127 19.2412C125.127 20.9893 124.072 22.5371 121.963 23.8848C119.863 25.2324 117.446 25.9062 114.712 25.9062ZM114.829 24.5C116.87 24.3926 118.618 23.8066 120.073 22.7422C121.538 21.6777 122.271 20.4473 122.271 19.0508C122.271 17.8008 121.714 17.1758 120.601 17.1758C119.272 17.1758 118.047 17.8887 116.924 19.3145C115.801 20.7402 115.103 22.4688 114.829 24.5Z" fill="black"/>
</svg>
