<svg width="20" height="20" viewBox="0 0 20 20" fill="none" xmlns="http://www.w3.org/2000/svg">
<path d="M11.0781 1.82514e-06C11.3721 1.82514e-06 11.6351 0.183002 11.7341 0.457002L12.4401 2.414C12.6931 2.477 12.9101 2.54 13.0941 2.606C13.2951 2.678 13.5541 2.787 13.8741 2.936L15.5181 2.066C15.6523 1.99491 15.8059 1.96925 15.956 1.99287C16.106 2.01649 16.2443 2.08811 16.3501 2.197L17.7961 3.692C17.9881 3.891 18.0421 4.182 17.9341 4.436L17.1631 6.243C17.2911 6.478 17.3931 6.679 17.4711 6.847C17.5551 7.03 17.6591 7.282 17.7831 7.607L19.5801 8.377C19.8501 8.492 20.0171 8.762 19.9991 9.051L19.8671 11.126C19.8581 11.2608 19.8097 11.39 19.7279 11.4975C19.6462 11.6051 19.5346 11.6863 19.4071 11.731L17.7051 12.336C17.6561 12.571 17.6051 12.772 17.5511 12.942C17.464 13.2045 17.3646 13.4628 17.2531 13.716L18.1081 15.606C18.1685 15.7388 18.1847 15.8874 18.1545 16.0301C18.1243 16.1728 18.0491 16.3021 17.9401 16.399L16.3141 17.851C16.207 17.9462 16.0734 18.0064 15.9312 18.0236C15.7889 18.0408 15.6448 18.014 15.5181 17.947L13.8421 17.059C13.5799 17.1978 13.3094 17.3204 13.0321 17.426L12.3001 17.7L11.6501 19.5C11.602 19.6318 11.5151 19.746 11.4009 19.8276C11.2866 19.9091 11.1504 19.9542 11.0101 19.957L9.11012 20C8.96609 20.0038 8.82442 19.9628 8.70461 19.8828C8.58481 19.8027 8.49275 19.6875 8.44112 19.553L7.67512 17.526C7.41377 17.4367 7.155 17.34 6.89912 17.236C6.68984 17.1454 6.48372 17.0477 6.28112 16.943L4.38112 17.755C4.25593 17.8084 4.11791 17.8243 3.98387 17.8007C3.84982 17.777 3.72553 17.715 3.62612 17.622L2.22012 16.303C2.11544 16.2052 2.04416 16.077 2.01634 15.9365C1.98852 15.796 2.00559 15.6503 2.06512 15.52L2.88212 13.74C2.77347 13.5292 2.67273 13.3144 2.58012 13.096C2.47202 12.8287 2.37198 12.5583 2.28012 12.285L0.490123 11.74C0.344624 11.696 0.217718 11.6052 0.129113 11.4817C0.0405085 11.3582 -0.00483544 11.2089 0.000123329 11.057L0.0701233 9.136C0.0751059 9.01066 0.11426 8.88907 0.183351 8.78438C0.252443 8.67968 0.348842 8.59587 0.462123 8.542L2.34012 7.64C2.42712 7.321 2.50312 7.073 2.57012 6.892C2.66446 6.65025 2.76923 6.41269 2.88412 6.18L2.07012 4.46C2.00835 4.32938 1.98959 4.18254 2.01654 4.04059C2.0435 3.89863 2.11477 3.76889 2.22012 3.67L3.62412 2.344C3.72254 2.25117 3.84569 2.18876 3.97875 2.16428C4.11181 2.1398 4.24911 2.15429 4.37412 2.206L6.27212 2.99C6.48212 2.85 6.67212 2.737 6.84412 2.646C7.04912 2.537 7.32312 2.423 7.66812 2.3L8.32812 0.459002C8.37692 0.32427 8.46611 0.207883 8.58352 0.125733C8.70092 0.0435827 8.84083 -0.000326251 8.98412 1.82514e-06H11.0781ZM10.0241 7.019C8.35712 7.019 7.00612 8.354 7.00612 10.002C7.00612 11.65 8.35712 12.986 10.0241 12.986C11.6901 12.986 13.0411 11.65 13.0411 10.002C13.0411 8.354 11.6911 7.019 10.0241 7.019Z" fill="#A9A9A9"/>
</svg>
