<svg width="120" height="120" viewBox="0 0 120 120" fill="none" xmlns="http://www.w3.org/2000/svg">
<path d="M94.5 55.5C95.5874 55.5 96.6381 55.8938 97.4576 56.6086C98.2771 57.3233 98.8101 58.3107 98.958 59.388L99 60V91.5C99.0002 95.7017 97.3974 99.7452 94.5186 102.806C91.6398 105.866 87.7019 107.713 83.508 107.97L82.5 108H37.5C33.2983 108 29.2548 106.397 26.1942 103.519C23.1337 100.64 21.2867 96.7019 21.03 92.508L21 91.5V60C21.0003 58.8598 21.4335 57.7623 22.2118 56.9292C22.9902 56.0961 24.0558 55.5895 25.1933 55.5118C26.3308 55.4341 27.4554 55.7911 28.3398 56.5106C29.2242 57.2301 29.8026 58.2585 29.958 59.388L30 60V91.5C30 95.382 32.952 98.58 36.732 98.964L37.5 99H82.5C84.3557 98.9993 86.1453 98.3108 87.5228 97.0673C88.9003 95.8239 89.768 94.1139 89.958 92.268L90 91.5V60C90 58.8065 90.4741 57.6619 91.318 56.818C92.1619 55.9741 93.3065 55.5 94.5 55.5ZM31.362 38.772L56.82 13.32C57.5819 12.5579 58.5921 12.0945 59.6667 12.0141C60.7414 11.9337 61.8092 12.2417 62.676 12.882L63.18 13.32L88.638 38.772C89.4535 39.5726 89.9337 40.6536 89.9814 41.7954C90.029 42.9372 89.6404 44.0544 88.8945 44.9202C88.1486 45.786 87.1012 46.3356 85.9649 46.4573C84.8286 46.5791 83.6885 46.264 82.776 45.576L82.272 45.138L64.5 27.36V73.5C64.5 74.5874 64.1061 75.638 63.3914 76.4576C62.6767 77.2771 61.6893 77.8101 60.612 77.958L60 78C58.9126 77.9999 57.8619 77.6061 57.0424 76.8914C56.2229 76.1766 55.6899 75.1893 55.542 74.112L55.5 73.5V27.36L37.728 45.138C36.9657 45.9017 35.9544 46.366 34.8784 46.4464C33.8024 46.5268 32.7333 46.2179 31.866 45.576L31.362 45.138C30.5983 44.3757 30.134 43.3644 30.0536 42.2884C29.9732 41.2124 30.2821 40.1433 30.924 39.276L31.362 38.772L56.82 13.32L31.362 38.772Z" fill="#FFFFFF"/>
</svg>
