<svg width="57" height="31" viewBox="0 0 57 31" fill="none" xmlns="http://www.w3.org/2000/svg">
<path d="M19.4746 3.85449C19.0742 3.90332 18.6689 3.87891 18.2588 3.78125C17.8584 3.68359 17.458 3.56152 17.0576 3.41504C16.7549 3.29785 16.457 3.2002 16.1641 3.12207C15.1875 2.84863 14.0303 2.78027 12.6924 2.91699C12.5654 2.94629 12.458 3.08301 12.3701 3.32715C12.2822 3.56152 12.209 3.80078 12.1504 4.04492C12.1211 4.16211 12.0967 4.25977 12.0771 4.33789C10.2021 10.5098 9.2793 16.3301 9.30859 21.7988C9.31836 21.9453 9.33789 22.0918 9.36719 22.2383C9.41602 22.4629 9.42578 22.6875 9.39648 22.9121C9.30859 23.332 9.1377 23.5566 8.88379 23.5859C8.63965 23.6152 8.39551 23.5322 8.15137 23.3369C7.90723 23.1416 7.76074 22.917 7.71191 22.6631C7.36035 20.3682 7.29688 17.4873 7.52148 14.0205C7.75586 10.5537 8.2832 7.37012 9.10352 4.46973C9.14258 4.23535 9.18164 4.01562 9.2207 3.81055C9.21094 3.71289 9.18164 3.64941 9.13281 3.62012C9.08398 3.58105 9.03027 3.56152 8.97168 3.56152C8.91309 3.56152 8.85938 3.56641 8.81055 3.57617C8.80078 3.57617 8.7959 3.57617 8.7959 3.57617C7.5166 3.77148 6.37891 4.06445 5.38281 4.45508C4.39648 4.8457 3.4248 5.3291 2.46777 5.90527C1.64746 6.37402 1.03223 6.39355 0.62207 5.96387C0.46582 5.76855 0.353516 5.5293 0.285156 5.24609C0.216797 4.95312 0.250977 4.65039 0.387695 4.33789C0.524414 4.08398 0.69043 3.9375 0.885742 3.89844C1.08105 3.85937 1.24219 3.85449 1.36914 3.88379C1.67188 3.93262 1.97461 3.92285 2.27734 3.85449C2.58008 3.77637 2.87793 3.68848 3.1709 3.59082C3.2002 3.58105 3.22949 3.57129 3.25879 3.56152C5.49512 2.83887 7.63867 2.33105 9.68945 2.03809C9.95312 1.34473 10.373 0.851562 10.9492 0.558594C11.3301 0.382812 11.6914 0.426758 12.0332 0.69043C12.3848 0.954102 12.5459 1.30078 12.5166 1.73047C14.2842 1.60352 15.8027 1.58398 17.0723 1.67188C18.3516 1.75977 19.2793 1.88672 19.8555 2.05273C20.2461 2.18945 20.4512 2.38965 20.4707 2.65332C20.5 2.91699 20.4121 3.1709 20.207 3.41504C20.002 3.65918 19.7578 3.80566 19.4746 3.85449ZM16.5303 14.5479C16.6182 14.5869 16.6719 14.6699 16.6914 14.7969C16.7109 14.9238 16.7012 15.0361 16.6621 15.1338C16.4668 15.7002 16.2959 16.2471 16.1494 16.7744C15.9932 17.3506 15.8174 17.9121 15.6221 18.459C15.4268 19.0059 15.1729 19.543 14.8604 20.0703C14.7725 20.2168 14.6357 20.4121 14.4502 20.6562C14.2744 20.8906 14.0498 21.1104 13.7764 21.3154C13.5127 21.5107 13.2148 21.6182 12.8828 21.6377C12.4727 21.6279 12.1309 21.5205 11.8574 21.3154C11.584 21.1104 11.3936 20.9004 11.2861 20.6855C11.0713 20.2754 10.9541 19.7725 10.9346 19.1768C10.915 18.5811 10.9346 18.0488 10.9932 17.5801C11.1494 15.8809 11.457 14.2256 11.916 12.6143C11.9258 12.5654 11.9404 12.4971 11.96 12.4092C11.9795 12.3115 12.0039 12.209 12.0332 12.1016C12.0625 11.9941 12.0967 11.916 12.1357 11.8672C12.1357 11.8574 12.1406 11.8525 12.1504 11.8525C12.209 11.7939 12.2969 11.7598 12.4141 11.75C12.541 11.7402 12.6436 11.7402 12.7217 11.75C13.083 11.8184 13.3955 12.0137 13.6592 12.3359C13.9229 12.6094 14.0205 12.9463 13.9521 13.3467C13.8154 13.9717 13.6787 14.5967 13.542 15.2217C13.542 15.2412 13.5371 15.2656 13.5273 15.2949C13.2832 16.4473 13.1318 17.3506 13.0732 18.0049C13.0146 18.6592 13.0098 19.123 13.0586 19.3965C13.1074 19.6699 13.1807 19.8115 13.2783 19.8213C13.5615 19.8604 13.8203 19.7676 14.0547 19.543C14.2891 19.3184 14.4697 19.0791 14.5967 18.8252C15.0264 17.9951 15.3535 17.1699 15.5781 16.3496C15.7051 15.9102 15.8516 15.4561 16.0176 14.9873C16.0566 14.8701 16.1152 14.7627 16.1934 14.665C16.2715 14.5576 16.3838 14.5186 16.5303 14.5479ZM14.1572 7.35547C14.0107 7.43359 13.8545 7.44336 13.6885 7.38477C13.5225 7.31641 13.4053 7.19922 13.3369 7.0332C13.3076 6.94531 13.293 6.85742 13.293 6.76953C13.293 6.7207 13.293 6.68164 13.293 6.65234C13.293 6.59375 13.2979 6.53516 13.3076 6.47656C13.3174 6.35938 13.332 6.24707 13.3516 6.13965C13.5273 5.57324 13.7129 5.0166 13.9082 4.46973C13.957 4.34277 14.0156 4.26465 14.084 4.23535C14.1621 4.20605 14.2549 4.20117 14.3623 4.2207C14.9287 4.33789 15.3389 4.69434 15.5928 5.29004C15.7002 5.49512 15.6953 5.7002 15.5781 5.90527C15.4219 6.18848 15.251 6.44727 15.0654 6.68164C14.8896 6.90625 14.6602 7.06738 14.377 7.16504C14.3281 7.18457 14.2842 7.21875 14.2451 7.26758C14.2158 7.29688 14.1865 7.32617 14.1572 7.35547ZM23.3857 9.75781C23.8936 9.99219 24.2256 10.3584 24.3818 10.8564C24.5674 11.4131 24.626 12.0186 24.5576 12.6729C24.499 13.3271 24.4062 13.9717 24.2793 14.6064C24.2207 14.9092 24.167 15.2021 24.1182 15.4854C23.874 17.0869 23.5615 18.6738 23.1807 20.2461C22.8779 21.5547 22.5166 22.834 22.0967 24.084C21.6768 25.334 21.1055 26.5303 20.3828 27.6729C20.0117 28.2783 19.582 28.8203 19.0938 29.2988C18.6055 29.7871 18.0293 30.1582 17.3652 30.4121C16.75 30.6465 16.1201 30.793 15.4756 30.8516C14.8311 30.9199 14.1914 30.8516 13.5566 30.6465C13.0098 30.4414 12.5508 30.0947 12.1797 29.6064C11.7988 29.1279 11.6328 28.5859 11.6816 27.9805C11.7988 27.9707 11.9062 28 12.0039 28.0684C12.1016 28.1465 12.1992 28.2344 12.2969 28.332C12.4336 28.5078 12.5898 28.6299 12.7656 28.6982C13.2344 28.7959 13.6934 28.7568 14.1426 28.5811C14.9434 28.3467 15.6465 27.9854 16.252 27.4971C16.8672 27.0088 17.4336 26.4521 17.9512 25.8271C18.4199 25.251 18.8105 24.6357 19.123 23.9814C19.4453 23.3271 19.7334 22.6582 19.9873 21.9746C20.6807 20.1387 21.2129 18.2588 21.584 16.335C21.6035 16.2373 21.6279 16.1152 21.6572 15.9688C21.7354 15.5879 21.8135 15.1826 21.8916 14.7529C21.9795 14.3135 22.0186 14.0107 22.0088 13.8447C21.7744 14.1865 21.4717 14.6113 21.1006 15.1191C20.7393 15.6172 20.4658 15.9883 20.2803 16.2324C19.6357 17.1211 18.957 17.9902 18.2441 18.8398C18.2246 18.8594 18.2051 18.8838 18.1855 18.9131C17.9316 19.2256 17.6289 19.5479 17.2773 19.8799C16.9258 20.2119 16.5645 20.4072 16.1934 20.4658C15.832 20.5146 15.5049 20.2803 15.2119 19.7627C14.8115 18.9619 14.7529 18.1514 15.0361 17.3311C15.6709 15.4072 16.5938 13.6348 17.8047 12.0137C18.3613 11.291 19.0693 11.1055 19.9287 11.457C20.3682 11.6328 20.7832 11.8477 21.1738 12.1016C21.5254 11.5547 21.8232 10.9834 22.0674 10.3877C22.3311 9.72363 22.7705 9.51367 23.3857 9.75781ZM16.208 18.2979C16.208 18.3955 16.3789 18.3174 16.7207 18.0635C17.0723 17.7998 17.5898 17.2529 18.2734 16.4229C18.957 15.5928 19.7969 14.3574 20.793 12.7168C20.6367 12.5898 20.4268 12.5068 20.1631 12.4678C19.7236 12.4385 19.2207 12.7314 18.6543 13.3467C18.0879 13.9619 17.5703 14.7285 17.1016 15.6465C16.6426 16.5547 16.3447 17.4385 16.208 18.2979ZM32.0137 10.417C32.5508 10.2119 33.0049 10.1924 33.376 10.3584C33.7568 10.5146 33.957 10.8662 33.9766 11.4131C33.9863 11.6377 33.9668 12.1064 33.918 12.8193C33.8691 13.5225 33.8154 14.2891 33.7568 15.1191C33.6787 16.1836 33.6201 17.0234 33.5811 17.6387C33.5811 17.6875 33.5811 17.7314 33.5811 17.7705C33.5811 17.9951 33.542 18.21 33.4639 18.415C33.415 18.5127 33.3418 18.5811 33.2441 18.6201C33.1465 18.6494 33.0537 18.6396 32.9658 18.5908C32.9365 18.5713 32.9072 18.5566 32.8779 18.5469C32.8193 18.5176 32.7559 18.4688 32.6875 18.4004C32.6191 18.332 32.5605 18.21 32.5117 18.0342C32.4727 17.8584 32.458 17.5898 32.4678 17.2285C32.4873 16.5449 32.5166 15.8564 32.5557 15.1631C32.5947 14.5869 32.6191 14.0742 32.6289 13.625C32.6484 13.166 32.6338 12.8389 32.585 12.6436C32.5361 12.4385 32.4336 12.4238 32.2773 12.5996C31.9062 13.0781 31.3984 14.0059 30.7539 15.3828C30.1191 16.75 29.5137 18.1172 28.9375 19.4844C28.3711 20.8418 28.0049 21.75 27.8389 22.209C27.7705 22.4043 27.6533 22.6484 27.4873 22.9414C27.3213 23.2344 27.1602 23.4443 27.0039 23.5713C26.9453 23.6201 26.8721 23.6592 26.7842 23.6885C26.6963 23.7178 26.6182 23.7324 26.5498 23.7324C26.1787 23.7129 25.8125 23.5566 25.4512 23.2637C25.0898 22.9707 24.8994 22.6777 24.8799 22.3848C24.958 20.2559 25.1191 18.127 25.3633 15.998C25.4023 15.627 25.4414 15.251 25.4805 14.8701C25.5488 14.2354 25.7441 12.9805 26.0664 11.1055C26.3887 9.2207 26.7354 7.35059 27.1064 5.49512C27.4873 3.63965 27.79 2.43359 28.0146 1.87695C28.0146 1.85742 28.0391 1.81348 28.0879 1.74512C28.1367 1.66699 28.2051 1.58398 28.293 1.49609C28.3809 1.39844 28.4883 1.31543 28.6152 1.24707C28.7422 1.17871 28.8936 1.14941 29.0693 1.15918C29.2744 1.16895 29.4551 1.23242 29.6113 1.34961C29.7773 1.4668 29.9238 1.60352 30.0508 1.75977C30.3047 2.00391 30.3877 2.30664 30.2998 2.66797C30.1924 3.05859 29.9922 4.05957 29.6992 5.6709C29.4062 7.28223 29.0889 9.08398 28.7471 11.0762C28.4053 13.0586 28.1123 14.8018 27.8682 16.3057C27.6338 17.7998 27.5166 18.6348 27.5166 18.8105C27.5752 18.7031 27.7021 18.4102 27.8975 17.9316C28.0928 17.4531 28.3125 16.9014 28.5566 16.2764C28.8105 15.6611 29.0449 15.0898 29.2598 14.5625C29.4746 14.0352 29.6309 13.6689 29.7285 13.4639C30.0801 12.6826 30.4463 12.0283 30.8271 11.501C31.208 10.9639 31.6035 10.6025 32.0137 10.417ZM45.7686 7.56055C45.7588 7.84375 45.666 8.01465 45.4902 8.07324C45.3145 8.12207 45.1143 8.11719 44.8896 8.05859C44.6748 8 44.5039 7.94141 44.377 7.88281C42.9805 7.29688 41.3936 6.99902 39.6162 6.98926C39.4307 6.99902 39.2354 7.00391 39.0303 7.00391C38.835 7.00391 38.6396 7.00879 38.4443 7.01855C37.9561 9.52832 37.5752 12.2139 37.3018 15.0752C37.0283 17.9268 36.9502 20.6123 37.0674 23.1318C37.0674 23.1514 37.0674 23.1709 37.0674 23.1904C37.0674 23.2002 37.0674 23.21 37.0674 23.2197C37.3115 23.0244 37.4678 22.7803 37.5361 22.4873C37.6436 22.4678 37.7217 22.5166 37.7705 22.6338C37.8193 22.7412 37.8389 22.8584 37.8291 22.9854C37.79 23.3467 37.707 23.6982 37.5801 24.04C37.4531 24.3818 37.248 24.665 36.9648 24.8896C36.4766 25.251 36.0811 25.3291 35.7783 25.124C35.4854 24.9189 35.2705 24.5918 35.1338 24.1426C34.9971 23.6934 34.9238 23.2832 34.9141 22.9121C34.8262 21.1152 34.8555 19.1523 35.002 17.0234C35.1484 14.8848 35.3682 12.9121 35.6611 11.1055C35.8955 9.75781 36.1738 8.41992 36.4961 7.0918C35.6465 7.14062 34.8408 7.25781 34.0791 7.44336C33.874 7.49219 33.6641 7.56055 33.4492 7.64844C33.127 7.77539 32.8096 7.86328 32.4971 7.91211C32.2041 7.94141 31.9404 7.8584 31.7061 7.66309C31.4619 7.45801 31.3008 7.20898 31.2227 6.91602C31.1445 6.62305 31.2031 6.34473 31.3984 6.08105C31.5059 5.9541 31.5938 5.89062 31.6621 5.89062C31.7207 5.88086 31.7939 5.90039 31.8818 5.94922C31.9307 5.98828 31.9941 6.02246 32.0723 6.05176C32.209 6.10059 32.3604 6.12012 32.5264 6.11035C32.6924 6.10059 32.8584 6.07617 33.0244 6.03711C33.0928 6.02734 33.1611 6.01758 33.2295 6.00781C34.3525 5.8418 35.5537 5.74902 36.833 5.72949C36.9111 5.39746 36.9941 5.06055 37.082 4.71875C37.3359 3.46875 37.6826 2.26758 38.1221 1.11523C38.1318 1.10547 38.1367 1.09082 38.1367 1.07129C38.166 0.993164 38.2148 0.890625 38.2832 0.763672C38.3516 0.626953 38.4639 0.509766 38.6201 0.412109C38.7764 0.314453 38.9912 0.275391 39.2646 0.294922C39.5283 0.333984 39.6895 0.46582 39.748 0.69043C39.8164 0.915039 39.8115 1.15918 39.7334 1.42285C39.3525 2.8291 39.0107 4.25977 38.708 5.71484C39.1182 5.72461 39.5186 5.72949 39.9092 5.72949C40.8271 5.73926 41.7402 5.78809 42.6484 5.87598C43.1074 5.91504 43.5664 5.96875 44.0254 6.03711C44.084 6.04688 44.1475 6.05664 44.2158 6.06641C44.5283 6.07617 44.8262 6.16406 45.1094 6.33008C45.5293 6.64258 45.749 7.05273 45.7686 7.56055ZM56.2861 14.4453C56.3643 14.4551 56.418 14.4941 56.4473 14.5625C56.4863 14.6309 56.5059 14.709 56.5059 14.7969C56.5156 14.875 56.5156 14.9385 56.5059 14.9873C56.291 16.0518 55.9053 17.0674 55.3486 18.0342C54.8018 18.9912 54.0742 19.7773 53.166 20.3926C52.2676 21.0078 51.1885 21.3154 49.9287 21.3154C48.9717 21.2764 48.2344 20.9492 47.7168 20.334C47.209 19.7188 46.9062 19.0352 46.8086 18.2832C46.252 19.1816 45.5342 19.9141 44.6553 20.4805C43.7764 21.0371 42.7412 21.3154 41.5498 21.3154C40.8174 21.2959 40.2168 21.1006 39.748 20.7295C39.2891 20.3486 38.9473 19.8848 38.7227 19.3379C38.498 18.7812 38.3857 18.2441 38.3857 17.7266C38.3857 16.6523 38.6104 15.627 39.0596 14.6504C39.5186 13.6738 40.1387 12.8828 40.9199 12.2773C41.4277 11.877 41.9844 11.6182 42.5898 11.501C42.9316 11.4326 43.2588 11.4766 43.5713 11.6328C43.835 11.8086 44.0303 12.0576 44.1572 12.3799C44.2842 12.7021 44.3623 13.0391 44.3916 13.3906C44.4502 13.9375 44.4209 14.4795 44.3037 15.0166C44.1963 15.5439 43.9766 16.0029 43.6445 16.3936C43.2148 16.8525 42.707 17.1455 42.1211 17.2725C41.8477 17.3311 41.623 17.375 41.4473 17.4043C41.2715 17.4238 41.0469 17.4336 40.7734 17.4336C40.627 18.166 40.7051 18.7324 41.0078 19.1328C41.3203 19.5234 41.7061 19.7139 42.165 19.7041C43.0928 19.665 43.9912 19.3379 44.8604 18.7227C45.7295 18.1074 46.4131 17.3066 46.9111 16.3203C47.1553 15.0898 47.6582 14.0254 48.4199 13.127C48.9863 12.502 49.5869 12.1309 50.2217 12.0137C50.8564 11.8867 51.4082 11.9648 51.877 12.248C52.3555 12.5215 52.6387 12.9463 52.7266 13.5225C52.7949 14.0596 52.7754 14.5771 52.668 15.0752C52.5703 15.5635 52.3604 16.0029 52.0381 16.3936C51.6084 16.8525 51.0957 17.1455 50.5 17.2725C50.2363 17.3311 50.0166 17.375 49.8408 17.4043C49.665 17.4238 49.4355 17.4336 49.1523 17.4336C49.0156 18.166 49.0986 18.7324 49.4014 19.1328C49.7041 19.5234 50.0898 19.7139 50.5586 19.7041C51.7305 19.6455 52.8242 19.1572 53.8398 18.2393C54.8652 17.3213 55.5195 16.1738 55.8027 14.7969C55.8223 14.7285 55.8711 14.6553 55.9492 14.5771C56.0273 14.4893 56.1396 14.4453 56.2861 14.4453ZM49.5039 16.0273C49.4746 16.0957 49.46 16.1641 49.46 16.2324C49.4697 16.3301 49.499 16.3887 49.5479 16.4082C49.5967 16.4277 49.6504 16.4277 49.709 16.4082C49.7773 16.3789 49.8311 16.3496 49.8701 16.3203C49.9971 16.2129 50.1582 16.0176 50.3535 15.7344C50.5586 15.4414 50.7393 15.0947 50.8955 14.6943C50.9541 14.5088 51.0029 14.3086 51.042 14.0938C51.0811 13.8691 51.0957 13.6738 51.0859 13.5078C51.0762 13.3418 51.0371 13.2539 50.9688 13.2441C50.666 13.2441 50.3926 13.5029 50.1484 14.0205C49.9043 14.5283 49.6895 15.1973 49.5039 16.0273ZM41.1104 16.0273C41.0811 16.0957 41.0664 16.1641 41.0664 16.2324C41.0762 16.3301 41.1055 16.3887 41.1543 16.4082C41.2129 16.4277 41.2715 16.4277 41.3301 16.4082C41.3887 16.3789 41.4375 16.3496 41.4766 16.3203C41.6133 16.2129 41.7793 16.0176 41.9746 15.7344C42.1699 15.4414 42.3457 15.0947 42.502 14.6943C42.5703 14.5088 42.6191 14.3086 42.6484 14.0938C42.6875 13.8691 42.7021 13.6738 42.6924 13.5078C42.6826 13.3418 42.6484 13.2539 42.5898 13.2441C42.2773 13.2441 41.999 13.5029 41.7549 14.0205C41.5107 14.5283 41.2959 15.1973 41.1104 16.0273Z" fill="black"/>
</svg>
